HIERARCHY
ROOT Hips
{
	OFFSET 0.000000 0.000000 0.000000
	CHANNELS 6 Xposition Yposition Zposition Zrotation Yrotation Xrotation 
	JOINT LHipJoint
	{
		OFFSET 0.000000 0.000000 0.000000
		CHANNELS 3 Zrotation Yrotation Xrotation
		JOINT LeftUpLeg
		{
			OFFSET 1.363060 -1.794630 0.839290
			CHANNELS 3 Zrotation Yrotation Xrotation
			JOINT LeftLeg
			{
				OFFSET 2.448110 -6.726130 0.000000
				CHANNELS 3 Zrotation Yrotation Xrotation
				JOINT LeftFoot
				{
					OFFSET 2.562200 -7.039590 0.000000
					CHANNELS 3 Zrotation Yrotation Xrotation
					JOINT LeftToeBase
					{
						OFFSET 0.157640 -0.433110 2.322550
						CHANNELS 3 Zrotation Yrotation Xrotation
						End Site
						{
							OFFSET 0.000000 0.000000 0.000000
						}
					}
				}
			}
		}
	}
	JOINT RHipJoint
	{
		OFFSET 0.000000 0.000000 0.000000
		CHANNELS 3 Zrotation Yrotation Xrotation
		JOINT RightUpLeg
		{
			OFFSET -1.305520 -1.794630 0.839290
			CHANNELS 3 Zrotation Yrotation Xrotation
			JOINT RightLeg
			{
				OFFSET -2.542530 -6.985550 0.000000
				CHANNELS 3 Zrotation Yrotation Xrotation
				JOINT RightFoot
				{
					OFFSET -2.568260 -7.056230 0.000000
					CHANNELS 3 Zrotation Yrotation Xrotation
					JOINT RightToeBase
					{
						OFFSET -0.164730 -0.452590 2.363150
						CHANNELS 3 Zrotation Yrotation Xrotation
						End Site
						{
							OFFSET 0.000000 0.000000 0.000000
						}
					}
				}
			}
		}
	}
}
MOTION
Frames: 14
Frame Time: 0.008333
1.049489 17.327509 0.808132 0.815278 67.361963 31.148984 -7.627312 -1.837660 0.158985 -10.891799 4.886905 -52.481048 -3.835947 -1.316361 5.622133 1.268743 6.789441 -1.135740 1.481400 -0.000001 -46.186400 11.574079 -1.127447 -2.940182 6.397796 -4.093413 -20.964804 1.325177 -2.532719 34.048327 -0.077082 1.806264 3.720624 0.226200 -0.000000 -64.387100
1.273478 17.303749 0.833827 0.364325 66.802779 30.677603 -7.638414 -1.834741 0.088161 -11.180820 5.486272 -52.564471 -3.915585 -1.308711 5.549980 1.191640 6.424476 -0.971289 1.443699 0.000000 -47.262500 11.645162 -1.135820 -2.899230 6.010657 -4.034041 -21.186952 1.199638 -2.652447 35.747256 -0.198809 1.032681 3.298258 0.081600 0.000000 -63.713600
1.495456 17.268321 0.859673 0.050168 66.313071 30.358180 -7.646770 -1.813527 0.038309 -11.397023 5.881729 -52.732751 -3.962290 -1.252004 5.926267 1.154525 6.235146 -0.892207 1.423300 -0.000000 -48.045600 11.724624 -1.129111 -2.873105 5.605424 -4.029092 -21.558510 1.074858 -2.789236 37.713115 -0.318465 0.284751 2.661771 -0.048800 -0.000000 -62.971400
1.715126 17.221368 0.886045 -0.104705 65.901699 30.216426 -7.650232 -1.773661 0.015271 -11.527041 6.034170 -52.969168 -3.972460 -1.150567 6.708816 1.154891 6.226133 -0.852593 1.428400 -0.000001 -48.583800 11.818566 -1.106298 -2.864946 5.164304 -4.096871 -22.076160 0.951112 -2.944393 39.915535 -0.427238 -0.375571 1.878450 -0.147700 -0.000000 -62.233301
1.932667 17.162676 0.912177 -0.180720 65.572670 30.180476 -7.655297 -1.718349 0.007648 -11.601763 6.023415 -53.373324 -3.958859 -0.986695 8.002214 1.168334 6.246895 -0.882127 1.429200 0.000000 -48.831800 11.916198 -1.076520 -2.866307 4.730923 -4.210383 -22.728176 0.827313 -3.113901 42.312817 -0.520826 -0.929755 1.013305 -0.212300 -0.000000 -61.558000
2.147619 17.092478 0.938786 -0.134799 65.327043 30.289743 -7.656298 -1.648068 0.012969 -11.644049 5.839466 -53.937120 -3.921274 -0.765135 9.769822 1.189084 6.278587 -0.956133 1.425500 -0.000000 -48.859300 12.024726 -1.037721 -2.878639 4.278979 -4.385167 -23.504438 0.702041 -3.298405 44.870405 -0.593721 -1.343603 0.112335 -0.240799 -0.000000 -60.995800
2.359773 17.010935 0.965961 0.018881 65.161200 30.526518 -7.652719 -1.566577 0.018763 -11.694559 5.537443 -54.702446 -3.865462 -0.480595 12.042108 1.202589 6.237479 -1.097422 1.399000 0.000000 -48.670300 12.141933 -0.992645 -2.897957 3.815489 -4.610001 -24.387407 0.573136 -3.495715 47.550384 -0.644638 -1.615182 -0.791723 -0.239600 0.000000 -60.566000
2.569011 16.918262 0.993465 0.234763 65.064847 30.840700 -7.647655 -1.481543 0.009404 -11.782789 5.194432 -55.710595 -3.794446 -0.126907 14.856048 1.195743 6.043029 -1.354146 1.329200 -0.000000 -48.183400 12.260878 -0.945474 -2.919736 3.364645 -4.859250 -25.352089 0.437828 -3.701930 50.316129 -0.675646 -1.763898 -1.680880 -0.218500 0.000000 -60.256700
2.775084 16.814970 1.021234 0.485344 65.024358 31.196829 -7.642900 -1.402195 -0.026216 -11.916253 4.857990 -56.953194 -3.703620 0.291411 18.186799 1.166459 5.684043 -1.763149 1.211300 0.000000 -47.343000 12.377635 -0.897187 -2.943243 2.938239 -5.112547 -26.371801 0.293545 -3.913968 53.136098 -0.690302 -1.815498 -2.552766 -0.186000 0.000000 -60.031700
2.977321 16.702095 1.050182 0.816682 65.024997 31.623554 -7.632019 -1.333736 -0.094747 -12.108450 4.526793 -58.350726 -3.585894 0.753205 21.915404 1.124545 5.230086 -2.323174 1.061500 -0.000000 -46.248300 12.499590 -0.842494 -2.972946 2.503233 -5.373262 -27.420323 0.138771 -4.132972 55.984975 -0.691554 -1.787949 -3.417962 -0.147800 0.000000 -59.841300
3.175656 16.580760 1.079627 1.151272 65.048224 32.037849 -7.621883 -1.288418 -0.203729 -12.333263 4.253967 -59.872277 -3.437268 1.246737 25.986221 1.075465 4.702550 -3.088929 0.882701 -0.000000 -44.776600 12.616093 -0.783960 -3.009340 2.096898 -5.602948 -28.466475 -0.028607 -4.353646 58.835441 -0.686417 -1.730662 -4.287358 -0.110800 -0.000000 -59.619000
3.369513 16.452815 1.110095 1.510182 65.080356 32.446314 -7.608535 -1.269188 -0.354701 -12.586305 4.033147 -61.419721 -3.257591 1.745292 30.248921 1.033667 4.189670 -4.062152 0.694400 -0.000000 -43.017600 12.731071 -0.717159 -3.057844 1.699894 -5.798076 -29.486242 -0.209002 -4.576151 61.665542 -0.679337 -1.672758 -5.176026 -0.077200 0.000000 -59.305100
3.558485 16.320484 1.141990 1.903561 65.111729 32.848305 -7.589597 -1.275390 -0.547724 -12.864577 3.861412 -62.904755 -3.052974 2.226134 34.562746 1.011039 3.761586 -5.244261 0.509200 -0.000000 -41.082600 12.846620 -0.639230 -3.122609 1.301268 -5.953656 -30.459861 -0.402176 -4.800241 64.453933 -0.674554 -1.642751 -6.094629 -0.047600 -0.000000 -58.847300
3.742212 16.186336 1.175774 2.348196 65.137479 33.251041 -7.562886 -1.302045 -0.781175 -13.170543 3.731333 -64.247567 -2.833619 2.671611 38.797277 1.016466 3.471691 -6.626208 0.332200 0.000000 -39.118200 12.965231 -0.547943 -3.206770 0.890023 -6.070660 -31.374416 -0.607166 -5.026169 67.180556 -0.675280 -1.661895 -7.048030 -0.020699 -0.000000 -58.207400
